<?xml version="1.0" encoding="UTF-8" standalone="no"?>
<!-- Created with Inkscape (http://www.inkscape.org/) -->

<svg
   xmlns:dc="http://purl.org/dc/elements/1.1/"
   xmlns:cc="http://creativecommons.org/ns#"
   xmlns:rdf="http://www.w3.org/1999/02/22-rdf-syntax-ns#"
   xmlns:svg="http://www.w3.org/2000/svg"
   xmlns="http://www.w3.org/2000/svg"
   xmlns:sodipodi="http://sodipodi.sourceforge.net/DTD/sodipodi-0.dtd"
   xmlns:inkscape="http://www.inkscape.org/namespaces/inkscape"
   width="156.96031mm"
   height="145.73061mm"
   viewBox="0 0 556.15859 516.36829"
   id="svg3430"
   version="1.1"
   inkscape:version="0.91 r13725"
   sodipodi:docname="clivm_vertical.svg">
  <defs
     id="defs3432" />
  <sodipodi:namedview
     id="base"
     pagecolor="#ffffff"
     bordercolor="#666666"
     borderopacity="1.0"
     inkscape:pageopacity="0.0"
     inkscape:pageshadow="2"
     inkscape:zoom="0.35"
     inkscape:cx="285.58372"
     inkscape:cy="198.18424"
     inkscape:document-units="px"
     inkscape:current-layer="layer1"
     showgrid="false"
     inkscape:window-width="1535"
     inkscape:window-height="876"
     inkscape:window-x="65"
     inkscape:window-y="24"
     inkscape:window-maximized="1"
     fit-margin-top="0"
     fit-margin-left="0"
     fit-margin-right="0"
     fit-margin-bottom="0" />
  <metadata
     id="metadata3435">
    <rdf:RDF>
      <cc:Work
         rdf:about="">
        <dc:format>image/svg+xml</dc:format>
        <dc:type
           rdf:resource="http://purl.org/dc/dcmitype/StillImage" />
        <dc:title></dc:title>
      </cc:Work>
    </rdf:RDF>
  </metadata>
  <g
     inkscape:label="Layer 1"
     inkscape:groupmode="layer"
     id="layer1"
     transform="translate(-89.416279,-214.17817)">
    <g
       transform="matrix(2.9759952,0,0,2.9759952,-1432.3308,-1575.8188)"
       id="g4873-0-7">
      <g
         transform="matrix(1.6745424,0,0,1.6745424,-257.13703,75.629012)"
         style="font-style:normal;font-variant:normal;font-weight:normal;font-stretch:normal;font-size:40px;line-height:125%;font-family:Sawasdee;-inkscape-font-specification:Sawasdee;letter-spacing:0px;word-spacing:0px;fill:#000000;fill-opacity:1;stroke:none;stroke-width:1px;stroke-linecap:butt;stroke-linejoin:miter;stroke-opacity:1"
         id="flowRoot4610-7-7-3-7">
        <path
           inkscape:connector-curvature="0"
           d="m 465.34375,406.54904 11.75781,0 -5.89844,-14.16016 -5.85937,14.16016 z m 12.46094,1.75781 -13.30078,0 -3.71094,9.04297 -1.875,0 12.22656,-29.51172 12.26563,29.51172 -1.875,0 -3.73047,-9.04297 z"
           style="font-style:normal;font-variant:normal;font-weight:normal;font-stretch:normal;font-family:Sawasdee;-inkscape-font-specification:Sawasdee;fill:#000000"
           id="path3935" />
        <path
           inkscape:connector-curvature="0"
           d="m 505.65625,407.42795 2.28516,0 3.10546,3.67187 q 2.96875,-3.59375 2.96875,-8.30078 0,-3.57422 -1.73828,-6.58203 -1.73828,-3.02734 -4.76562,-4.78516 -3.00781,-1.75781 -6.5625,-1.75781 -3.55469,0 -6.5625,1.75781 -2.98828,1.75782 -4.72656,4.78516 -1.73829,3.00781 -1.73829,6.58203 0,2.65625 1.01563,5.07813 1.03516,2.42187 2.77344,4.17968 1.73828,1.75782 4.16015,2.8125 2.42188,1.03516 5.07813,1.03516 5.05859,0 8.88672,-3.47656 l -4.17969,-5 z m 10.60547,9.92187 -2.38281,0 -2.96875,-3.53515 q -2.01172,1.8164 -4.57032,2.83203 -2.55859,0.99609 -5.39062,0.99609 -3.00781,0 -5.74219,-1.17187 -2.73437,-1.17188 -4.70703,-3.16407 -1.97266,-1.99218 -3.14453,-4.72656 -1.17188,-2.75391 -1.17188,-5.78125 0,-3.02734 1.17188,-5.78125 1.17187,-2.75391 3.14453,-4.74609 1.97266,-1.99219 4.70703,-3.16407 2.73438,-1.17187 5.74219,-1.17187 3.00781,0 5.74219,1.17187 2.7539,1.17188 4.72656,3.16407 1.99219,1.99218 3.16406,4.74609 1.17188,2.75391 1.17188,5.78125 0,5.54688 -3.61329,9.70703 l 4.1211,4.84375 z"
           style="font-style:normal;font-variant:normal;font-weight:normal;font-stretch:normal;font-family:Sawasdee;-inkscape-font-specification:Sawasdee;fill:#000000"
           id="path3937" />
        <path
           inkscape:connector-curvature="0"
           d="m 521.41797,388.18967 1.75781,0 0,18.10546 q 0,2.63672 1.19141,4.86329 1.1914,2.22656 3.16406,3.49609 1.99219,1.25 4.29687,1.25 2.30469,0 4.25782,-1.25 1.97265,-1.26953 3.125,-3.47656 1.17187,-2.22657 1.17187,-4.88282 l 0,-18.10546 1.75781,0 0,18.10546 q 0,3.06641 -1.38671,5.6836 -1.36719,2.59765 -3.76954,4.14062 -2.38281,1.52344 -5.21484,1.52344 -2.83203,0 -5.21484,-1.52344 -2.38282,-1.54297 -3.76953,-4.14062 -1.36719,-2.61719 -1.36719,-5.6836 l 0,-18.10546 z"
           style="font-style:normal;font-variant:normal;font-weight:normal;font-stretch:normal;font-family:Sawasdee;-inkscape-font-specification:Sawasdee;fill:#000000"
           id="path3939" />
        <path
           inkscape:connector-curvature="0"
           d="m 552.45312,406.54904 11.75782,0 -5.89844,-14.16016 -5.85938,14.16016 z m 12.46094,1.75781 -13.30078,0 -3.71094,9.04297 -1.875,0 12.22657,-29.51172 12.26562,29.51172 -1.875,0 -3.73047,-9.04297 z"
           style="font-style:normal;font-variant:normal;font-weight:normal;font-stretch:normal;font-family:Sawasdee;-inkscape-font-specification:Sawasdee;fill:#000000"
           id="path3941" />
      </g>
      <g
         id="g4804-5-0-1"
         transform="translate(384.07694,39.399556)">
        <g
           transform="translate(56.428568,458.57143)"
           id="g4375-4-4-2-1">
          <path
             inkscape:connector-curvature="0"
             style="opacity:0.18699999;fill:#00ffff;fill-rule:evenodd;stroke:none;stroke-width:0.65028143px;stroke-linecap:butt;stroke-linejoin:miter;stroke-opacity:1"
             d="m 213.93426,132.25502 0,57.49512 -49.79223,28.74756 -49.79224,-28.74756 0,-57.49512 49.79224,-28.74756 z"
             id="path3341-3-36-2-7-7-7-5-9" />
          <path
             inkscape:connector-curvature="0"
             style="fill:#00ffff;stroke:none"
             d="m 182.3354,155.43228 a 17.857143,17.857143 0 0 1 -17.85714,17.85714 17.857143,17.857143 0 0 1 -17.85715,-17.85714 17.857143,17.857143 0 0 1 17.85715,-17.85714 17.857143,17.857143 0 0 1 17.85714,17.85714 z"
             id="path3358-0-0-5-8-4-8-0" />
          <path
             inkscape:connector-curvature="0"
             style="fill:#00ffff;stroke:none"
             d="m 154.09072,181.90416 a 3.6200135,3.6200135 0 0 1 -3.62002,3.62001 3.6200135,3.6200135 0 0 1 -3.62001,-3.62001 3.6200135,3.6200135 0 0 1 3.62001,-3.62001 3.6200135,3.6200135 0 0 1 3.62002,3.62001 z"
             id="path3358-6-62-2-9-4-4-9-8" />
        </g>
        <g
           transform="translate(143.44614,478.14025)"
           id="g4375-4-2-3-5-9">
          <path
             inkscape:connector-curvature="0"
             style="opacity:0.18699999;fill:#00ffff;fill-rule:evenodd;stroke:none;stroke-width:0.65028143px;stroke-linecap:butt;stroke-linejoin:miter;stroke-opacity:1"
             d="m 113.77167,120.27549 0,42.31655 -36.647212,21.15827 -36.647208,-21.15827 0,-42.31655 36.647208,-21.15828 z"
             id="path3341-3-36-2-7-7-0-0-0-8" />
        </g>
      </g>
    </g>
  </g>
</svg>
